<?xml version="1.0" encoding="utf-8"?>
<!-- Generator: Adobe Illustrator 23.0.3, SVG Export Plug-In . SVG Version: 6.00 Build 0)  -->
<svg version="1.1" id="Слой_1" xmlns="http://www.w3.org/2000/svg" xmlns:xlink="http://www.w3.org/1999/xlink" x="0px" y="0px"
	 viewBox="0 0 16 16" style="enable-background:new 0 0 16 16;" xml:space="preserve">
<style type="text/css">
	.st0{fill:#424242;}
	.st1{fill:#C6C6C6;}
</style>
<path class="st1" d="M3,14.5H2c-0.83,0-1.5-0.67-1.5-1.5V9c0-0.28-0.22-0.5-0.5-0.5v-1c0.28,0,0.5-0.22,0.5-0.5V3
	c0-0.83,0.67-1.5,1.5-1.5h1v1H2C1.73,2.5,1.5,2.72,1.5,3v4c0,0.38-0.15,0.73-0.38,1C1.36,8.27,1.5,8.62,1.5,9v4
	c0,0.28,0.22,0.5,0.5,0.5h1V14.5z"/>
<path class="st1" d="M14,14.5h-1v-1h1c0.28,0,0.5-0.22,0.5-0.5V9c0-0.38,0.15-0.74,0.38-1c-0.24-0.27-0.38-0.62-0.38-1V3
	c0-0.28-0.22-0.5-0.5-0.5h-1v-1h1c0.83,0,1.5,0.67,1.5,1.5v4c0,0.28,0.22,0.5,0.5,0.5v1c-0.28,0-0.5,0.22-0.5,0.5v4
	C15.5,13.83,14.83,14.5,14,14.5z"/>
<polygon class="st1" points="6.5,11.54 3.34,8.38 4.05,7.67 6.5,10.12 11.95,4.67 12.66,5.38 "/>
</svg>
