<?xml version="1.0" encoding="utf-8"?>
<!-- Generator: Adobe Illustrator 23.0.3, SVG Export Plug-In . SVG Version: 6.00 Build 0)  -->
<svg version="1.1" id="Слой_1" xmlns="http://www.w3.org/2000/svg" xmlns:xlink="http://www.w3.org/1999/xlink" x="0px" y="0px"
	 viewBox="0 0 16 16" style="enable-background:new 0 0 16 16;" xml:space="preserve">
<style type="text/css">
	.st0{fill:#424242;}
	.st1{fill:#C6C6C6;}
</style>
<path class="st1" d="M15.39,6.29l-1.41-0.34l1.41-0.34c0.18-0.04,0.33-0.19,0.37-0.37c0.04-0.18-0.02-0.38-0.17-0.5l-3.63-2.98
	c-0.13-0.1-0.29-0.14-0.45-0.1L8,2.63L4.5,1.67c-0.16-0.04-0.32-0.01-0.45,0.1L0.41,4.75C0.27,4.87,0.2,5.06,0.24,5.24
	c0.04,0.19,0.19,0.33,0.37,0.37l1.41,0.34L0.61,6.29C0.43,6.34,0.29,6.48,0.24,6.67C0.2,6.85,0.27,7.05,0.41,7.17l2.36,1.94v2.67
	c0,0.18,0.1,0.35,0.26,0.44l4.73,2.57c0.07,0.04,0.16,0.06,0.24,0.06c0.08,0,0.16-0.02,0.24-0.06l4.73-2.57
	c0.16-0.09,0.26-0.26,0.26-0.44V9.11l2.36-1.94c0.15-0.12,0.21-0.31,0.17-0.5C15.71,6.48,15.57,6.34,15.39,6.29z M8,8.15L5.01,5.96
	L8,3.77l2.99,2.19L8,8.15z M11.52,2.7l2.66,2.18l-2.23,0.54L9.13,3.36L11.52,2.7z M4.48,2.7l2.39,0.66L4.05,5.42L1.83,4.88L4.48,2.7
	z M4.05,6.5l2.82,2.06L4.48,9.22L1.83,7.03L4.05,6.5z M3.78,9.93l0.27,0.22c0.09,0.07,0.2,0.11,0.32,0.11
	c0.04,0,0.09-0.01,0.13-0.02l3-0.83v4.09l-3.73-2.03V9.93z M12.23,11.48L8.5,13.51V9.42l3,0.83c0.04,0.01,0.09,0.02,0.13,0.02
	c0.11,0,0.23-0.04,0.32-0.11l0.27-0.22V11.48z M11.52,9.22L9.13,8.56l2.82-2.06l2.23,0.54L11.52,9.22z"/>
</svg>
