<?xml version="1.0" standalone="no"?>
<!DOCTYPE svg PUBLIC "-//W3C//DTD SVG 20010904//EN"
 "http://www.w3.org/TR/2001/REC-SVG-20010904/DTD/svg10.dtd">
<svg version="1.0" xmlns="http://www.w3.org/2000/svg"
 width="74.000000pt" height="62.000000pt" viewBox="0 0 74.000000 62.000000"
 preserveAspectRatio="xMidYMid meet">
<metadata>
Created by potrace 1.16, written by Peter Selinger 2001-2019
</metadata>
<g transform="translate(0.000000,62.000000) scale(0.100000,-0.100000)"
fill="#000000" stroke="none">
<path d="M232 551 c-153 -87 -142 -69 -142 -241 0 -139 1 -147 22 -167 37 -32
224 -133 248 -133 24 0 211 101 248 133 21 20 22 28 22 167 0 139 -1 147 -22
167 -39 34 -225 133 -250 133 -12 -1 -69 -27 -126 -59z m248 -23 c60 -35 110
-65 110 -68 0 -3 -22 -18 -50 -33 l-49 -28 -116 67 c-64 36 -114 69 -111 72
14 13 82 51 94 52 7 0 62 -28 122 -62z m-151 -63 c147 -83 142 -77 88 -108
-25 -15 -50 -27 -57 -27 -12 0 -230 123 -230 130 0 4 90 59 98 60 2 0 48 -25
101 -55z m-89 -98 l105 -62 3 -133 c1 -79 -1 -132 -7 -132 -16 0 -205 111
-218 128 -9 11 -13 56 -13 139 0 92 3 123 13 122 6 0 59 -28 117 -62z m370
-60 c0 -83 -4 -128 -12 -139 -14 -17 -203 -128 -219 -128 -6 0 -8 53 -7 132
l3 133 105 62 c58 34 111 62 118 62 9 1 12 -30 12 -122z"/>
</g>
</svg>
