<?xml version="1.0"?>
<svg xmlns:rdf="http://www.w3.org/1999/02/22-rdf-syntax-ns#" xmlns="http://www.w3.org/2000/svg" xmlns:cc="http://creativecommons.org/ns#" xmlns:xlink="http://www.w3.org/1999/xlink" xmlns:dc="http://purl.org/dc/elements/1.1/" xmlns:svg="http://www.w3.org/2000/svg" id="svg2" viewBox="0 0 34 34" version="1.0">
  <defs id="defs4">
    <linearGradient id="linearGradient1483" y2="48.977" gradientUnits="userSpaceOnUse" x2="40.305" gradientTransform="matrix(.88932 0 0 .88932 3.5416 3.5416)" y1="13.746" x1="20.153">
      <stop id="stop1354" stop-color="#982007" offset="0"/>
      <stop id="stop1356" stop-color="#510f02" offset="1"/>
    </linearGradient>
    <linearGradient id="linearGradient1485" y2="46.762" gradientUnits="userSpaceOnUse" x2="47.844" gradientTransform="matrix(.88932 0 0 .88932 -32.549 2.4514)" y1="17.421" x1="18.505">
      <stop id="stop1367" stop-color="#f1140c" offset="0"/>
      <stop id="stop1370" stop-color="#8d1a02" offset="1"/>
    </linearGradient>
    <linearGradient id="linearGradient1487" y2="46.762" gradientUnits="userSpaceOnUse" x2="47.844" gradientTransform="matrix(.88932 0 0 .88932 3.5416 3.5416)" y1="17.421" x1="18.505">
      <stop id="stop1380" stop-color="#ff8b8e" offset="0"/>
      <stop id="stop1382" stop-color="#b42314" stop-opacity=".72241" offset="1"/>
    </linearGradient>
  </defs>
  <g id="layer1">
    <g id="g1478" transform="translate(-15,-15)">
      <path id="path1349" fill="url(#linearGradient1483)" d="m16.025 21.211c-0.376 0.454-0.342 1.12 0.079 1.533l9.256 9.256-9.256 9.256c-0.215 0.213-0.336 0.503-0.336 0.806 0 0.302 0.121 0.592 0.336 0.805l5.03 5.031c0.213 0.215 0.504 0.336 0.806 0.336 0.303 0 0.593-0.121 0.806-0.336l9.256-9.256 9.256 9.256c0.213 0.215 0.503 0.336 0.805 0.336 0.303 0 0.593-0.121 0.806-0.336l5.031-5.031c0.215-0.213 0.336-0.503 0.336-0.805 0-0.303-0.121-0.593-0.336-0.806l-9.256-9.256 9.256-9.256c0.215-0.213 0.336-0.503 0.336-0.806 0-0.302-0.121-0.592-0.336-0.805l-5.031-5.031c-0.213-0.215-0.503-0.336-0.806-0.336-0.302 0-0.592 0.121-0.805 0.336l-9.256 9.256-9.256-9.256c-0.213-0.215-0.503-0.336-0.806-0.336-0.302 0-0.593 0.121-0.806 0.336l-5.03 5.031c-0.028 0.025-0.054 0.051-0.079 0.078z"/>
      <path id="path1468" d="m-14.375 15.844c-0.18 0.047-0.342 0.145-0.469 0.281l-4.031 4.031c-0.377 0.381-0.377 0.995 0 1.375l9.375 9.375-9.375 9.375c-0.377 0.381-0.377 0.995 0 1.375l4.031 4.032c0.381 0.377 0.995 0.377 1.375 0l9.3752-9.376 9.375 9.376c0.3808 0.377 0.9943 0.377 1.375 0l4.0318-4.032c0.377-0.38 0.377-0.994 0-1.375l-9.3755-9.375 9.3755-9.375c0.377-0.38 0.377-0.994 0-1.375l-4.0318-4.031c-0.3807-0.377-0.9942-0.377-1.375 0l-9.375 9.375-9.3752-9.375c-0.233-0.244-0.576-0.35-0.906-0.281z" fill="url(#linearGradient1485)" transform="translate(36.094 1.1033)"/>
      <path id="path1472" fill="url(#linearGradient1487)" d="m21.844 17.656c-0.036 0.014-0.068 0.035-0.094 0.063l-4.031 4.031c-0.032 0.035-0.054 0.078-0.063 0.125-0.016 0.051-0.016 0.105 0 0.156 0.014 0.036 0.035 0.068 0.063 0.094l9.562 9.563c0.088 0.083 0.157 0.198 0.157 0.312s-0.069 0.229-0.157 0.312l-9.562 9.563c-0.032 0.035-0.054 0.078-0.063 0.125-0.016 0.051-0.016 0.105 0 0.156 0.014 0.036 0.035 0.068 0.063 0.094l4.031 4.031c0.035 0.032 0.078 0.054 0.125 0.063 0.051 0.016 0.105 0.016 0.156 0 0.036-0.014 0.068-0.035 0.094-0.063l9.563-9.562c0.083-0.088 0.198-0.157 0.312-0.157s0.229 0.069 0.312 0.157l9.563 9.562c0.035 0.032 0.078 0.054 0.125 0.063 0.051 0.016 0.105 0.016 0.156 0 0.036-0.014 0.068-0.035 0.094-0.063l4.031-4.031c0.032-0.035 0.054-0.078 0.063-0.125 0.016-0.051 0.016-0.105 0-0.156-0.014-0.036-0.035-0.068-0.063-0.094l-9.562-9.563c-0.088-0.083-0.157-0.198-0.157-0.312s0.069-0.229 0.157-0.312l9.562-9.563c0.032-0.035 0.054-0.078 0.063-0.125 0.016-0.051 0.016-0.105 0-0.156-0.014-0.036-0.035-0.068-0.063-0.094l-4.031-4.031c-0.035-0.032-0.078-0.054-0.125-0.063-0.051-0.016-0.105-0.016-0.156 0-0.036 0.014-0.068 0.035-0.094 0.063l-9.563 9.562c-0.083 0.088-0.198 0.157-0.312 0.157s-0.229-0.069-0.312-0.157l-9.563-9.562c-0.035-0.032-0.078-0.054-0.125-0.063-0.051-0.016-0.105-0.016-0.156 0z"/>
    </g>
  </g>
  <metadata>
    <rdf:RDF>
      <cc:Work>
        <dc:format>image/svg+xml</dc:format>
        <dc:type rdf:resource="http://purl.org/dc/dcmitype/StillImage"/>
        <cc:license rdf:resource="http://creativecommons.org/licenses/publicdomain/"/>
        <dc:publisher>
          <cc:Agent rdf:about="http://openclipart.org/">
            <dc:title>Openclipart</dc:title>
          </cc:Agent>
        </dc:publisher>
        <dc:title>cross</dc:title>
        <dc:date>2008-05-26T11:40:39</dc:date>
        <dc:description>cancel, cancel, clip art, clipart, delete, delete, icon, icon, image, media, png, public domain, svg, </dc:description>
        <dc:source>http://openclipart.org/detail/16982/cross-by-jean_victor_balin</dc:source>
        <dc:creator>
          <cc:Agent>
            <dc:title>jean_victor_balin</dc:title>
          </cc:Agent>
        </dc:creator>
        <dc:subject>
          <rdf:Bag>
            <rdf:li>cancel</rdf:li>
            <rdf:li>clip art</rdf:li>
            <rdf:li>clipart</rdf:li>
            <rdf:li>delete</rdf:li>
            <rdf:li>icon</rdf:li>
            <rdf:li>image</rdf:li>
            <rdf:li>media</rdf:li>
            <rdf:li>png</rdf:li>
            <rdf:li>public domain</rdf:li>
            <rdf:li>svg</rdf:li>
          </rdf:Bag>
        </dc:subject>
      </cc:Work>
      <cc:License rdf:about="http://creativecommons.org/licenses/publicdomain/">
        <cc:permits rdf:resource="http://creativecommons.org/ns#Reproduction"/>
        <cc:permits rdf:resource="http://creativecommons.org/ns#Distribution"/>
        <cc:permits rdf:resource="http://creativecommons.org/ns#DerivativeWorks"/>
      </cc:License>
    </rdf:RDF>
  </metadata>
</svg>
