<svg xmlns="http://www.w3.org/2000/svg" xmlns:xlink="http://www.w3.org/1999/xlink" version="1.1" width="256" height="256" viewBox="0 0 256 256" xml:space="preserve">
<desc>Created with Fabric.js 1.7.22</desc>
<defs>
</defs>
<g transform="translate(128 128) scale(0.72 0.72)" style="">
	<g style="stroke: none; stroke-width: 0; stroke-dasharray: none; stroke-linecap: butt; stroke-linejoin: miter; stroke-miterlimit: 10; fill: none; fill-rule: nonzero; opacity: 1;" transform="translate(-175.05 -175.05000000000004) scale(3.89 3.89)" >
	<path d="M 82.558 78.913 H 7.442 C 3.339 78.913 0 75.574 0 71.471 V 20.126 c 0 -4.984 4.055 -9.04 9.04 -9.04 h 28.962 c 4.984 0 9.04 4.055 9.04 9.04 c 0 2.475 1.64 4.597 4.014 5.23 h 30.517 c 4.647 0 8.428 3.781 8.428 8.428 v 37.686 C 90 75.574 86.661 78.913 82.558 78.913 z M 9.04 15.087 c -2.779 0 -5.04 2.261 -5.04 5.04 v 51.344 c 0 1.898 1.544 3.442 3.442 3.442 h 75.115 c 1.898 0 3.442 -1.544 3.442 -3.442 V 33.785 c 0 -2.441 -1.986 -4.428 -4.428 -4.428 H 50.813 c -0.149 0 -0.298 -0.017 -0.443 -0.05 c -4.314 -0.981 -7.328 -4.756 -7.328 -9.18 c 0 -2.779 -2.261 -5.04 -5.04 -5.04 H 9.04 z" style="stroke: none; stroke-width: 1; stroke-dasharray: none; stroke-linecap: butt; stroke-linejoin: miter; stroke-miterlimit: 10; fill: rgb(255,255,255); fill-rule: nonzero; opacity: 1;" transform=" matrix(1 0 0 1 0 0) " stroke-linecap="round" />
	<path d="M 82.558 78.913 H 7.442 C 3.339 78.913 0 75.574 0 71.471 V 20.126 c 0 -4.984 4.055 -9.04 9.04 -9.04 h 28.962 c 4.984 0 9.04 4.055 9.04 9.04 c 0 2.475 1.64 4.597 4.014 5.23 h 30.517 c 4.647 0 8.428 3.781 8.428 8.428 v 37.686 C 90 75.574 86.661 78.913 82.558 78.913 z M 9.04 15.087 c -2.779 0 -5.04 2.261 -5.04 5.04 v 51.344 c 0 1.898 1.544 3.442 3.442 3.442 h 75.115 c 1.898 0 3.442 -1.544 3.442 -3.442 V 33.785 c 0 -2.441 -1.986 -4.428 -4.428 -4.428 H 50.813 c -0.149 0 -0.298 -0.017 -0.443 -0.05 c -4.314 -0.981 -7.328 -4.756 -7.328 -9.18 c 0 -2.779 -2.261 -5.04 -5.04 -5.04 H 9.04 z" style="stroke: none; stroke-width: 1; stroke-dasharray: none; stroke-linecap: butt; stroke-linejoin: miter; stroke-miterlimit: 10; fill: rgb(255,255,255); fill-rule: nonzero; opacity: 1;" transform=" matrix(1 0 0 1 0 0) " stroke-linecap="round" />
	<path d="M 82.573 29.442 c -1.104 0 -2 -0.896 -2 -2 v -5.078 c 0 -2.061 -1.677 -3.737 -3.737 -3.737 H 44.108 c -1.104 0 -2 -0.896 -2 -2 s 0.896 -2 2 -2 h 32.728 c 4.267 0 7.737 3.471 7.737 7.737 v 5.078 C 84.573 28.547 83.678 29.442 82.573 29.442 z" style="stroke: none; stroke-width: 1; stroke-dasharray: none; stroke-linecap: butt; stroke-linejoin: miter; stroke-miterlimit: 10; fill: rgb(255,255,255); fill-rule: nonzero; opacity: 1;" transform=" matrix(1 0 0 1 0 0) " stroke-linecap="round" />
</g>
</g>
</svg>