<svg xmlns="http://www.w3.org/2000/svg" xmlns:xlink="http://www.w3.org/1999/xlink" version="1.1" width="256" height="256" viewBox="0 0 256 256" xml:space="preserve">
<desc>Created with Fabric.js 1.7.22</desc>
<defs>
</defs>
<g transform="translate(128 128) scale(0.72 0.72)" style="">
	<g style="stroke: none; stroke-width: 0; stroke-dasharray: none; stroke-linecap: butt; stroke-linejoin: miter; stroke-miterlimit: 10; fill: none; fill-rule: nonzero; opacity: 1;" transform="translate(-175.05 -175.05000000000004) scale(3.89 3.89)" >
	<path d="M 45 81.302 c -0.126 0 -0.254 -0.024 -0.375 -0.073 L 10.479 67.435 c -0.378 -0.152 -0.625 -0.52 -0.625 -0.927 V 39.727 c 0 -0.552 0.448 -1 1 -1 s 1 0.448 1 1 v 26.106 L 44 78.819 V 37.288 c 0 -0.552 0.448 -1 1 -1 s 1 0.448 1 1 v 43.014 c 0 0.332 -0.165 0.644 -0.441 0.829 C 45.392 81.244 45.196 81.302 45 81.302 z" style="stroke: none; stroke-width: 1; stroke-dasharray: none; stroke-linecap: butt; stroke-linejoin: miter; stroke-miterlimit: 10; fill: rgb(255,255,255); fill-rule: nonzero; opacity: 1;" transform=" matrix(1 0 0 1 0 0) " stroke-linecap="round" />
	<path d="M 35.146 50.541 c -0.125 0 -0.252 -0.023 -0.374 -0.073 L 0.625 36.673 c -0.293 -0.119 -0.514 -0.369 -0.593 -0.675 s -0.01 -0.632 0.188 -0.878 l 9.854 -12.253 c 0.276 -0.343 0.745 -0.466 1.154 -0.301 L 45.375 36.36 c 0.293 0.119 0.514 0.369 0.593 0.675 c 0.08 0.306 0.01 0.632 -0.188 0.878 l -9.854 12.254 C 35.732 50.409 35.443 50.541 35.146 50.541 z M 2.623 35.323 l 32.209 13.013 l 8.544 -10.625 L 11.167 24.698 L 2.623 35.323 z" style="stroke: none; stroke-width: 1; stroke-dasharray: none; stroke-linecap: butt; stroke-linejoin: miter; stroke-miterlimit: 10; fill: rgb(255,255,255); fill-rule: nonzero; opacity: 1;" transform=" matrix(1 0 0 1 0 0) " stroke-linecap="round" />
	<path d="M 45 81.302 c -0.196 0 -0.392 -0.058 -0.559 -0.171 C 44.165 80.945 44 80.634 44 80.302 V 37.288 c 0 -0.552 0.448 -1 1 -1 s 1 0.448 1 1 v 41.532 l 32.146 -12.986 V 39.727 c 0 -0.552 0.447 -1 1 -1 s 1 0.448 1 1 v 26.781 c 0 0.407 -0.247 0.774 -0.625 0.927 L 45.375 81.229 C 45.254 81.277 45.126 81.302 45 81.302 z" style="stroke: none; stroke-width: 1; stroke-dasharray: none; stroke-linecap: butt; stroke-linejoin: miter; stroke-miterlimit: 10; fill: rgb(255,255,255); fill-rule: nonzero; opacity: 1;" transform=" matrix(1 0 0 1 0 0) " stroke-linecap="round" />
	<path d="M 54.854 50.541 c -0.296 0 -0.585 -0.132 -0.779 -0.373 l -9.854 -12.254 c -0.198 -0.247 -0.268 -0.572 -0.188 -0.878 s 0.3 -0.557 0.593 -0.675 l 34.146 -13.795 c 0.409 -0.166 0.878 -0.043 1.154 0.301 l 9.854 12.253 c 0.198 0.247 0.269 0.572 0.188 0.878 s -0.3 0.557 -0.593 0.675 L 55.229 50.468 C 55.106 50.518 54.979 50.541 54.854 50.541 z M 46.623 37.71 l 8.544 10.625 l 32.21 -13.013 l -8.544 -10.625 L 46.623 37.71 z" style="stroke: none; stroke-width: 1; stroke-dasharray: none; stroke-linecap: butt; stroke-linejoin: miter; stroke-miterlimit: 10; fill: rgb(255,255,255); fill-rule: nonzero; opacity: 1;" transform=" matrix(1 0 0 1 0 0) " stroke-linecap="round" />
	<path d="M 79.146 24.493 c -0.125 0 -0.252 -0.024 -0.375 -0.073 L 45 10.776 L 11.228 24.42 c -0.511 0.208 -1.095 -0.04 -1.302 -0.553 c -0.207 -0.512 0.041 -1.095 0.553 -1.302 L 44.625 8.771 c 0.24 -0.097 0.509 -0.097 0.749 0 l 34.147 13.795 c 0.512 0.207 0.759 0.79 0.552 1.302 C 79.916 24.256 79.542 24.493 79.146 24.493 z" style="stroke: none; stroke-width: 1; stroke-dasharray: none; stroke-linecap: butt; stroke-linejoin: miter; stroke-miterlimit: 10; fill: rgb(255,255,255); fill-rule: nonzero; opacity: 1;" transform=" matrix(1 0 0 1 0 0) " stroke-linecap="round" />
	<path d="M 45 38.288 c -0.552 0 -1 -0.448 -1 -1 V 9.698 c 0 -0.552 0.448 -1 1 -1 s 1 0.448 1 1 v 27.59 C 46 37.84 45.552 38.288 45 38.288 z" style="stroke: none; stroke-width: 1; stroke-dasharray: none; stroke-linecap: butt; stroke-linejoin: miter; stroke-miterlimit: 10; fill: rgb(255,255,255); fill-rule: nonzero; opacity: 1;" transform=" matrix(1 0 0 1 0 0) " stroke-linecap="round" />
</g>
</g>
</svg>