<svg xmlns="http://www.w3.org/2000/svg" xmlns:xlink="http://www.w3.org/1999/xlink" version="1.1" width="256" height="256" viewBox="0 0 256 256" xml:space="preserve">
<desc>Created with Fabric.js 1.7.22</desc>
<defs>
</defs>
<g transform="translate(128 128) scale(0.72 0.72)" style="">
	<g style="stroke: none; stroke-width: 0; stroke-dasharray: none; stroke-linecap: butt; stroke-linejoin: miter; stroke-miterlimit: 10; fill: none; fill-rule: nonzero; opacity: 1;" transform="translate(-175.05 -175.05000000000004) scale(3.89 3.89)" >
	<path d="M 72.146 77.124 H 2 c -0.693 0 -1.336 -0.358 -1.701 -0.948 c -0.364 -0.589 -0.398 -1.325 -0.088 -1.945 l 16.121 -32.288 c 1.289 -2.581 3.882 -4.185 6.766 -4.185 h 61.969 c 1.72 0 3.287 0.874 4.192 2.337 s 0.986 3.256 0.218 4.796 L 73.936 76.018 C 73.598 76.695 72.904 77.124 72.146 77.124 z M 5.234 73.124 h 65.675 l 14.989 -30.021 c 0.201 -0.403 0.061 -0.74 -0.042 -0.905 c -0.102 -0.165 -0.34 -0.441 -0.79 -0.441 H 23.097 c -1.359 0 -2.58 0.755 -3.187 1.972 L 5.234 73.124 z" style="stroke: none; stroke-width: 1; stroke-dasharray: none; stroke-linecap: butt; stroke-linejoin: miter; stroke-miterlimit: 10; fill: rgb(255,255,255); fill-rule: nonzero; opacity: 1;" transform=" matrix(1 0 0 1 0 0) " stroke-linecap="round" />
	<path d="M 2 77.124 c -1.104 0 -2 -0.896 -2 -2 V 20.618 c 0 -4.269 3.473 -7.742 7.742 -7.742 h 23.624 c 4.269 0 7.742 3.473 7.742 7.742 c 0 1.834 1.205 3.409 2.954 3.897 h 26.749 c 2.942 0 5.336 2.394 5.336 5.336 v 9.906 c 0 1.104 -0.896 2 -2 2 s -2 -0.896 -2 -2 v -9.906 c 0 -0.737 -0.6 -1.336 -1.336 -1.336 H 41.815 c -0.149 0 -0.298 -0.017 -0.443 -0.05 c -3.688 -0.838 -6.264 -4.065 -6.264 -7.848 c 0 -2.063 -1.679 -3.742 -3.742 -3.742 H 7.742 C 5.679 16.875 4 18.554 4 20.618 v 54.506 C 4 76.229 3.104 77.124 2 77.124 z" style="stroke: none; stroke-width: 1; stroke-dasharray: none; stroke-linecap: butt; stroke-linejoin: miter; stroke-miterlimit: 10; fill: rgb(255,255,255); fill-rule: nonzero; opacity: 1;" transform=" matrix(1 0 0 1 0 0) " stroke-linecap="round" />
</g>
</g>
</svg>