<?xml version="1.0" encoding="UTF-8"?>
<svg width="128" height="128" enable-background="new 0 0 111.811 122.88" version="1.1" viewBox="0 0 128 128" xml:space="preserve" xmlns="http://www.w3.org/2000/svg"><g transform="matrix(1.1323 0 0 1.0369 -6.1921 -1.5859)"><g transform="translate(6.0844 1.8146)"/><g transform="matrix(1.0104 0 0 .98973 6.0844 1.8146)" stroke-width="1.012" aria-label="XP"><path transform="scale(.98973 1.0104)" d="m55.713 0c20.848 13.215 39.682 19.467 55.846 17.989 2.823 57.098-18.263 90.818-55.63 104.89-36.085-13.172-57.429-45.441-55.846-105.76 18.975 0.993 37.591-3.109 55.63-17.123zm0.022 7.055c18.454 11.697 34.069 18.893 48.377 17.584 2.498 50.541-15.109 75.71-48.184 88.166-31.942-11.659-49.629-36.296-48.227-89.688 16.797 0.88 32.067-3.6567 48.034-16.062z" clip-rule="evenodd" fill-rule="evenodd"/><path d="m57.953 29.995-7.2358 4.7361-10.525 13.386 12.038 19.767 5.7228 4.3086h-16.971l4.177-4.0454-7.4989-12.235-9.2749 11.972 5.3939 7.0055h-17.991l-0.49335-0.88802h16.741l-4.7032-6.1175 9.867-12.794-0.92092-1.4472-10.755 13.616 4.0126 4.9335h-15.096l7.6962-4.9335 12.728-16.116-10.262-16.741-6.2491-4.4072h17.366l-4.3086 3.7494 7.3344 11.972 1.184-1.5129-6.1504-9.8012 3.6508-3.4863 0.59202 0.55913-3.1574 2.9272 5.5913 9.1434 7.1371-9.1434-4.1112-4.4072zm1.184 2.4996-6.4135 3.7823-9.3078 12.071 11.347 18.747 8.0251 7.7949h-20.425l-0.59202-0.88802h18.912l-6.6766-6.4793-11.643-19.175 9.7683-12.63 6.5122-3.881z"/><path d="m66.209 29.995h14.768q9.4065 0 13.386 2.5983 5.065 3.2561 5.065 9.0447 0 3.5192-1.9405 6.1175-1.9405 2.5983-5.4268 3.7494-3.4863 1.1511-11.084 1.1511h-4.0454v15.919l4.0126 3.6179h-15.294l4.5717-3.8481v-13.189q-0.39468-0.03289-0.55913-0.03289-2.3681 0-4.5388 1.0196l-0.29601-0.59202q2.2036-1.2498 3.9468-1.2498h1.184l0.26312-0.03289v-1.6116q-0.75647-0.09867-1.0196-0.09867-3.5192 0-5.6242 1.7103l-0.3289-0.49335q2.0063-3.6837 6.4464-3.6837h0.52624v-16.116zm10.722 3.3877v16.478h0.42757l0.85514 0.03289q0.13156 0 0.42757-0.03289v-14.669h3.6179q4.2099 0 5.9202 0.75647 1.7432 0.72358 2.9601 3.0588-1.2169-1.6774-3.0588-2.3352-1.8089-0.69069-5.1308-0.69069h-3.3877v13.88q6.5122 0 9.5381-1.9076 3.0588-1.9076 3.0588-5.986 0-4.5717-2.7299-6.6437-2.697-2.0721-8.7158-2.0721-1.5458 0-3.7823 0.13156zm20.819 0.13156q2.0063 0.9867 3.2232 3.4863 1.2169 2.4667 1.2169 5.6242 0 7.1371-5.5255 10.262-4.177 2.3681-14.274 2.3681-1.6774 0-2.8285-0.06578v13.584l5.1637 6.1175h-16.478l-0.88803-0.88802h15.491l-4.2099-4.8677v-14.833q2.8614 0.16445 6.0846 0.16445 8.4856 0 12.597-2.993 4.1112-2.993 4.1112-9.1763 0-2.5654-0.78935-4.4401-0.78936-1.9076-2.8943-4.3415z"/></g></g></svg>
