<?xml version="1.0" encoding="UTF-8"?>
<svg width="144.59mm" height="178.09mm" version="1.1" viewBox="0 0 396.63 488.52" xmlns="http://www.w3.org/2000/svg">
 <g transform="matrix(1.5924 0 0 1.5924 -215.7 -6.1155)">
  <path d="m136.01 89.628v-26.646c0-2.8423-0.23997-7.1279 1.1699-9.5593 1.9998-3.4418 13.029-7.1501 16.828-8.5712l41.996-16.343 43.995-17.342c4.2896-1.5877 15.428-6.495 18.998-6.7837 5.0195-0.39969 25.047 8.3825 30.997 10.803l84.991 33.308c2.6197 1.0881 6.2394 2.1983 7.8292 4.9296 1.4098 2.4315 1.1699 6.7171 1.1699 9.5593v26.646c-0.06 6.5768-0.0314 5.4183 0 13.323 0 48.196-14.808 98.747-41.996 136.56-12.518 17.294-9.8976 13.737-23.997 29.655-13.259 12.912-24.967 21.639-39.996 31.631-3.8196 2.5314-13.849 9.304-17.998 9.304s-14.179-6.7726-17.998-9.304c-15.208-10.114-26.587-18.519-39.996-31.62-41.935-43.332-65.304-110.82-65.993-166.23 0.11101-11.939 0.0147-2.0011 0-13.323zm235.98-28.867-26.997-10.337-54.994-21.495-19.998-7.7718-9.999-3.2309-10.999 3.6083-24.997 9.8924-47.995 18.608-27.997 10.725v52.182c0.07 52.893 28.417 114.02 63.993 148.13 11.349 10.881 20.928 19.13 33.996 27.457 3.3297 2.1206 10.349 7.2389 13.999 7.0724 3.3696-0.15544 11.759-5.9843 14.998-8.0383 12.769-8.1049 26.477-18.908 36.996-30.299 30.447-32.997 50.325-72 57.404-118.79 1.3099-8.6045 2.5797-17.931 2.5897-26.646z" stroke="#000" stroke-width="1.0536"/>
  <path d="m273.02 94.8-17.459 9.6835-25.395 27.369 29.046 40.415 13.809 8.8093h-40.95l10.079-8.2714c-15.838-21.782-0.41841-0.16732-19.205-26.697l-2.222-2.9588-25.951 27.84 9.6818 10.087h-36.426l18.57-10.087 30.712-32.951-24.76-34.229-15.078-9.0111h41.902l-10.396 7.6661 17.697 24.478 2.8569-3.0934c17.151-18.755 2.4621-2.4085 18.491-20.04l-9.92-9.0111z" stroke-width="2.2477"/>
  <path d="m283.58 94.8h35.632c15.131 0 25.898 1.7708 32.299 5.3125 8.1476 4.4383 12.221 10.603 12.221 18.493 0 4.7969-1.5607 8.9662-4.6822 12.508-3.1215 3.5416-7.4862 6.097-13.094 7.6661-5.6081 1.5691-14.523 2.3536-26.744 2.3536h-9.7612v32.547l9.6819 7.3971h-36.902l11.031-7.8679v-26.966c-0.0248-5.7878 0-1.5633 0-5.1108-1.2168-0.13449-2.0369-0.20174-2.4601-0.20174-5.661 0-10.184 1.1656-13.57 3.4968l-0.79358-1.0087c3.2273-5.0211 8.4121-7.5316 15.554-7.5316h1.2698v-32.951zm25.871 6.9264v33.691h1.0317l2.0634 0.0673c1.9117-0.0395 0.93635 0.044 3.2537-0.0673 10.475 0 18.147-1.3001 23.014-3.9003 4.9203-2.6002 7.3804-6.6798 7.3804-12.239 0-6.2315-2.1956-10.759-6.5868-13.584-4.3383-2.8244-11.348-4.2365-21.03-4.2365-2.4866 0-5.5287 0.0897-9.1264 0.26898z" stroke-width="2.2477"/>
 </g>
</svg>
